<?xml version="1.0" standalone="no"?>
<!DOCTYPE svg PUBLIC "-//W3C//DTD SVG 1.1//EN" "http://www.w3.org/Graphics/SVG/1.1/DTD/svg11.dtd" >
<svg xmlns="http://www.w3.org/2000/svg">
<metadata></metadata>
<defs>
<font id="itc_avant_garde_pro_mdmedium" horiz-adv-x="1136" >
<font-face units-per-em="2048" ascent="1516" descent="-532" />
<missing-glyph horiz-adv-x="604" />
<glyph horiz-adv-x="2048" />
<glyph horiz-adv-x="2048" />
<glyph unicode="&#xd;" horiz-adv-x="2048" />
<glyph unicode=" "  horiz-adv-x="604" />
<glyph unicode="&#x09;" horiz-adv-x="604" />
<glyph unicode="&#xa0;" horiz-adv-x="604" />
<glyph unicode="!" horiz-adv-x="567" d="M178 0v250h213v-250h-213zM178 373v1143h213v-1143h-213z" />
<glyph unicode="&#x22;" horiz-adv-x="665" d="M41 1516h225l-41 -607h-145zM401 1516h226l-41 -607h-146z" />
<glyph unicode="#" d="M61 418l5 172h206l35 254h-184l4 172h205l57 418h182l-57 -418h209l57 418h183l-58 -418h168l-4 -172h-188l-35 -254h166l-4 -172h-187l-59 -418h-180l57 418h-209l-59 -418h-181l58 418h-187zM455 590h209l34 254h-209z" />
<glyph unicode="$" d="M139 471h213q10 -104 68.5 -166.5t159.5 -62.5q98 0 151 65.5t53 165.5q0 74 -35.5 121t-90 70.5t-136.5 46.5q-162 45 -242.5 128t-80.5 242q0 135 74.5 238.5t205.5 136.5v230h195v-230q141 -16 220 -113.5t83 -240.5h-213q-6 82 -52 127t-128 45q-78 0 -125 -56.5 t-47 -136.5q0 -68 33.5 -106.5t76.5 -54t133 -39.5q342 -90 342 -406q0 -162 -84 -276.5t-239 -139.5v-227h-195v227q-158 41 -245 145.5t-95 266.5z" />
<glyph unicode="%" horiz-adv-x="1714" d="M106 1171q0 100 50.5 184.5t135.5 133.5t185 49t185.5 -49t135.5 -133t50 -185q0 -100 -50 -184t-135 -133t-186 -49q-100 0 -185 49t-135.5 133t-50.5 184zM291 1171q0 -78 54 -134t132 -56t132.5 56.5t54.5 133.5q0 78 -54.5 134.5t-132.5 56.5t-132 -56.5t-54 -134.5z M346 0l868 1516h138l-869 -1516h-137zM864 340q0 100 50.5 184t135.5 133.5t185 49.5t185 -49.5t135.5 -133.5t50.5 -184t-50.5 -184t-135.5 -133.5t-185 -49.5t-185 49.5t-135.5 133.5t-50.5 184zM1049 340q0 -78 54 -134t132 -56t132 56t54 134t-54 134t-132 56t-132 -56 t-54 -134z" />
<glyph unicode="&#x26;" horiz-adv-x="1400" d="M70 424q0 145 77.5 258t212.5 174q-74 76 -109.5 142.5t-35.5 158.5q0 106 50 195.5t137 140.5t196 51q104 0 191.5 -51t136.5 -140t49 -194q0 -242 -254 -364l201 -197l165 334h240l-248 -500l305 -311l-147 -150l-264 267q-176 -266 -441 -267q-127 0 -232 59.5 t-167.5 163t-62.5 230.5zM291 424q0 -106 67.5 -178t173.5 -72q178 0 293 217l-319 316q-103 -35 -159 -107t-56 -176zM436 1157q0 -59 34 -108.5t95 -106.5q94 49 141.5 96t47.5 127q0 72 -44 124t-114 52q-74 0 -117 -54t-43 -130z" />
<glyph unicode="'" horiz-adv-x="446" d="M111 1516h225l-41 -607h-143z" />
<glyph unicode="(" horiz-adv-x="833" d="M113 518q0 205 75.5 405.5t213 364.5t317.5 258v-264q-197 -174 -291 -347t-94 -415q0 -248 98 -433t299 -347v-266q-118 62 -231 164q-186 174 -286.5 401t-100.5 479z" />
<glyph unicode=")" horiz-adv-x="833" d="M102 1280v266q186 -96 326.5 -261t216.5 -369.5t76 -413.5q0 -205 -76 -405.5t-213 -364.5t-317 -258v264q199 176 292 347t93 415q0 248 -98.5 432t-299.5 348z" />
<glyph unicode="*" horiz-adv-x="1173" d="M197 1180l45 135l278 -94l-2 295h144l-7 -295l279 94l45 -135l-283 -88l178 -236l-116 -84l-170 242l-170 -242l-117 84l178 236z" />
<glyph unicode="+" horiz-adv-x="1228" d="M98 412v213h410v411h213v-411h409v-213h-409v-412h-213v412h-410z" />
<glyph unicode="," horiz-adv-x="567" d="M178 0v250h213v-227q0 -240 -213 -283v127q47 16 61.5 46t14.5 87h-76z" />
<glyph unicode="-" horiz-adv-x="573" d="M0 485v213h573v-213h-573z" />
<glyph unicode="." horiz-adv-x="567" d="M178 0v250h213v-250h-213z" />
<glyph unicode="/" horiz-adv-x="1021" d="M84 -205l590 1721h233l-590 -1721h-233z" />
<glyph unicode="0" d="M78 504v528q0 166 75.5 290t225.5 185q98 39 194 39q137 0 248 -66.5t174.5 -181t63.5 -251.5v-560q0 -110 -22.5 -187t-88.5 -155q-70 -84 -171 -129t-212 -45t-212 48.5t-171 136.5q-61 78 -82.5 157.5t-21.5 190.5zM291 487q0 -141 73.5 -231t208.5 -90q121 0 205 96 q43 49 55.5 96.5t12.5 124.5v564q0 135 -72 220t-203 85t-205.5 -85t-74.5 -220v-560z" />
<glyph unicode="1" d="M303 1321v195h436v-1516h-213v1321h-223z" />
<glyph unicode="2" d="M76 995v9q-2 176 72.5 310t228.5 195q86 35 174 35q135 0 244.5 -65.5t172 -178t62.5 -245.5q0 -129 -52 -223.5t-159 -204.5l-422 -432h635v-195h-948v178l596 606q137 137 137 277q0 76 -31.5 142.5t-91 106.5t-135.5 40q-127 0 -198.5 -92.5t-71.5 -223.5v-39h-213z " />
<glyph unicode="3" d="M45 446h213q6 -125 83 -202.5t200 -77.5q74 0 136 38t99 102.5t37 137.5q0 119 -82 196t-201 77h-77v213h73q98 0 160 57t62 154q0 86 -58.5 147.5t-144.5 61.5q-90 0 -141.5 -59.5t-61.5 -153.5h-213q8 137 75.5 234t192.5 145q86 29 154 28q119 0 212 -54t145.5 -150.5 t52.5 -215.5q0 -98 -32 -161.5t-108 -133.5q98 -63 151.5 -161.5t53.5 -214.5q0 -142 -63.5 -251.5t-175 -170t-252.5 -60.5q-131 0 -244 62.5t-179.5 172t-66.5 240.5z" />
<glyph unicode="4" d="M25 238v206l692 1072h213v-1084h160v-194h-160v-238h-213v238h-692zM270 432h447v729h-4z" />
<glyph unicode="5" d="M51 459h213q25 -129 102.5 -211t202.5 -82q86 0 155 47t108.5 124t39.5 161q0 88 -34.5 170t-102 133t-157.5 51q-178 0 -273 -158l-184 43l127 779h692v-195h-516l-57 -336q86 61 211 62q147 0 262.5 -71t180 -192.5t64.5 -269.5q0 -147 -66.5 -271t-185 -198 t-266.5 -74q-141 0 -253.5 62.5t-180 173t-82.5 252.5z" />
<glyph unicode="6" d="M51 487q0 186 115 363l426 666h252l-322 -498q51 10 90 10q139 0 251 -69.5t174.5 -186.5t62.5 -256q0 -147 -67.5 -272t-187.5 -199t-267 -74q-160 0 -285 81t-191 224q-51 109 -51 211zM264 508q0 -90 40 -169t110.5 -126t163.5 -47q86 0 156.5 46t111.5 121t41 161 q0 88 -38 166.5t-107.5 126t-159.5 47.5q-88 0 -161 -45.5t-115 -120t-42 -160.5z" />
<glyph unicode="7" d="M145 1321v195h879v-195l-555 -1321h-238l572 1321h-658z" />
<glyph unicode="8" d="M88 446q0 242 199 390q-68 68 -98.5 133t-30.5 157q0 113 55 209.5t150.5 152.5t207.5 56q111 0 205 -57t148.5 -152.5t54.5 -206.5q0 -96 -30.5 -162.5t-104.5 -129.5q98 -66 150.5 -165.5t52.5 -217.5q0 -129 -64.5 -240t-175.5 -176.5t-240 -65.5q-131 0 -240.5 63.5 t-174 172t-64.5 239.5zM301 436q0 -72 36 -134t96.5 -99t131.5 -37q72 0 133.5 37t98.5 98t37 133q0 74 -35 139.5t-96.5 104.5t-135.5 39t-135 -39t-96 -103.5t-35 -138.5zM371 1141q0 -84 56 -145.5t140 -61.5q90 0 144.5 61.5t54.5 153.5q0 82 -57.5 141.5t-139.5 59.5 q-84 0 -141 -62.5t-57 -146.5z" />
<glyph unicode="9" d="M37 1001q0 145 67.5 270.5t186.5 199t266 73.5q160 0 285 -81t192 -226q49 -109 49 -207q1 -182 -116 -364l-422 -666h-252l321 498q-57 -8 -88 -9q-139 0 -250.5 70t-175 186.5t-63.5 255.5zM250 1022q0 -86 40 -164t109.5 -126t157.5 -48q84 0 156.5 45t114.5 120 t42 159q0 90 -38.5 168.5t-110.5 126t-162 47.5q-86 0 -156.5 -45t-111.5 -121t-41 -162z" />
<glyph unicode=":" horiz-adv-x="567" d="M178 0v250h213v-250h-213zM178 887v250h213v-250h-213z" />
<glyph unicode=";" horiz-adv-x="567" d="M178 0v250h213v-227q0 -240 -213 -283v127q47 16 61.5 46t14.5 87h-76zM178 887v250h213v-250h-213z" />
<glyph unicode="&#x3c;" horiz-adv-x="1228" d="M94 430v176l1041 447v-209l-764 -326l764 -325v-209z" />
<glyph unicode="=" horiz-adv-x="1228" d="M98 188v213h1032v-213h-1032zM98 635v213h1032v-213h-1032z" />
<glyph unicode="&#x3e;" horiz-adv-x="1228" d="M94 -16v209l764 325l-764 326v209l1041 -447v-176z" />
<glyph unicode="?" horiz-adv-x="1060" d="M66 1083q6 150 79.5 262.5t208.5 165.5q88 33 172 33q123 0 226.5 -62.5t165 -168t61.5 -228.5q0 -84 -20.5 -143t-57.5 -105t-104 -110q-90 -84 -126 -151.5t-50 -186.5h-213q2 137 55 242.5t158 212.5l28 28q59 59 88 102.5t29 102.5q0 102 -69.5 177t-172.5 75 q-61 0 -114.5 -29.5t-87.5 -80.5q-33 -53 -43 -136h-213zM408 0v250h213v-250h-213z" />
<glyph unicode="@" horiz-adv-x="1556" d="M23 741q0 231 104 413.5t288.5 285t415.5 102.5q201 0 361 -83t251 -235.5t91 -355.5q0 -120 -44 -248t-133 -214.5t-214 -86.5q-61 0 -111.5 32t-62.5 91h-4q-90 -123 -273 -123q-100 0 -171.5 51.5t-109.5 135.5t-38 182q0 117 49 223.5t140 173t210 66.5 q178 0 254 -141h4l21 112h151l-86 -473q-16 -104 -16 -121q0 -23 15 -38t36 -15q121 0 170 130t49 276q0 158 -72.5 272.5t-199.5 173.5t-283 59q-180 0 -323.5 -80.5t-224.5 -225t-81 -324.5q0 -197 80 -338.5t227.5 -215t344.5 -73.5q131 0 265 29.5t222 93.5l80 -125 q-279 -154 -567 -154q-256 0 -454 108.5t-296 332.5q-66 150 -65 327zM537 692q0 -90 46 -153.5t132 -63.5q133 0 201.5 97.5t68.5 234.5q0 188 -203 188q-76 0 -132 -44t-84.5 -114.5t-28.5 -144.5z" />
<glyph unicode="A" horiz-adv-x="1400" d="M27 0l575 1516h199l575 -1516h-235l-168 446h-545l-168 -446h-233zM506 649h391l-192 580h-5z" />
<glyph unicode="B" horiz-adv-x="1187" d="M154 0v1516h393q342 0 442 -254q31 -80 31 -166q0 -92 -33 -159t-102 -128q225 -129 225 -369q0 -96 -37 -182q-59 -135 -182 -196.5t-285 -61.5h-452zM375 203h239q115 0 195 63.5t80 173.5q0 84 -53 150q-43 57 -101.5 74.5t-146.5 17.5h-213v-479zM375 885h180 q113 0 178.5 52t65.5 161q0 215 -256 215h-168v-428z" />
<glyph unicode="C" horiz-adv-x="1601" d="M78 764q0 213 104.5 392t283.5 283.5t392 104.5q123 0 244 -39t219 -108q137 -98 233 -269h-266q-182 213 -426 213q-156 0 -284.5 -78.5t-203.5 -211.5t-75 -289q0 -152 75 -288t203 -218t281 -82q117 0 226.5 54.5t187.5 146.5h272q-109 -190 -290 -297t-398 -107 q-211 0 -390 108.5t-283.5 291t-104.5 393.5z" />
<glyph unicode="D" horiz-adv-x="1499" d="M133 0v1516h492q420 0 618 -279q74 -102 115 -229t41 -254q0 -142 -50.5 -293.5t-140.5 -241.5q-221 -219 -592 -219h-483zM354 203h264q260 0 410 145.5t150 405.5q0 114 -45 231q-66 162 -199 245t-311 83h-269v-1110z" />
<glyph unicode="E" horiz-adv-x="1064" d="M133 0v1516h817v-203h-596v-447h596v-202h-596v-461h596v-203h-817z" />
<glyph unicode="F" horiz-adv-x="987" d="M133 0v1516h766v-203h-545v-455h545v-203h-545v-655h-221z" />
<glyph unicode="G" horiz-adv-x="1701" d="M78 754q0 215 102.5 396t279.5 287.5t392 106.5q213 0 395.5 -110.5t284.5 -298.5h-258q-183 206 -412 206h-2q-156 0 -285 -80.5t-202.5 -217t-73.5 -289.5q0 -152 76 -286t205 -214t282 -80q178 0 317.5 103.5t204.5 273.5h-706v203h958q-4 -236 -121.5 -423.5 t-330.5 -285.5q-160 -74 -330 -74q-213 0 -391 105.5t-281.5 285t-103.5 392.5z" />
<glyph unicode="H" horiz-adv-x="1372" d="M154 0v1516h221v-654h624v654h222v-1516h-222v659h-624v-659h-221z" />
<glyph unicode="I" horiz-adv-x="526" d="M154 0v1516h221v-1516h-221z" />
<glyph unicode="J" horiz-adv-x="997" d="M0 303h227q49 -129 193 -129q100 0 147 68.5t47 173.5v1100h222v-1088q0 -125 -37 -215q-49 -117 -150.5 -179.5t-230.5 -62.5q-98 0 -187.5 41t-151 117t-79.5 174z" />
<glyph unicode="K" horiz-adv-x="1265" d="M184 0v1516h222v-1516h-222zM410 764l575 752h272l-591 -752l591 -764h-272z" />
<glyph unicode="L" horiz-adv-x="909" d="M162 0v1516h221v-1313h526v-203h-747z" />
<glyph unicode="M" horiz-adv-x="1912" d="M154 0v1516h348l454 -1162l457 1162h348v-1516h-221v1280h-6l-510 -1280h-133l-512 1280h-4v-1280h-221z" />
<glyph unicode="N" horiz-adv-x="1511" d="M154 0v1516h241l738 -1154h4v1154h221v-1516h-230l-749 1171h-4v-1171h-221z" />
<glyph unicode="O" horiz-adv-x="1732" d="M78 758q0 215 105.5 395t286.5 285.5t396 105.5q217 0 398.5 -105.5t286 -286.5t104.5 -398q0 -213 -106.5 -392.5t-288 -285t-394.5 -105.5t-394 105.5t-287.5 287t-106.5 394.5zM299 758q0 -119 53 -246q72 -160 206 -249t308 -89q186 0 324.5 99.5t204.5 275.5 q39 100 39 203q0 159 -74 294.5t-203 215t-291 79.5q-176 0 -310 -90t-204 -252q-53 -123 -53 -241z" />
<glyph unicode="P" horiz-adv-x="1144" d="M133 0v1516h438q240 0 387.5 -114t147.5 -345q0 -232 -147.5 -345.5t-387.5 -113.5h-217v-598h-221zM354 801h217q137 0 225.5 62.5t88.5 193.5t-88 193.5t-226 62.5h-217v-512z" />
<glyph unicode="Q" horiz-adv-x="1714" d="M78 762q0 215 103.5 395t281.5 283.5t395 103.5q215 0 393.5 -105.5t282.5 -286.5t104 -394q0 -147 -47 -274.5t-139 -254.5q93 -53 210 -53h9v-205q-112 2 -198.5 29t-182.5 88q-211 -117 -434 -117q-213 0 -392 106.5t-282.5 289t-103.5 395.5zM299 748q0 -66 20 -148 q119 47 289 47q313 0 664 -285q74 92 109.5 186.5t35.5 209.5q0 153 -73.5 287.5t-200.5 215t-281 80.5q-158 0 -287 -81.5t-202.5 -218t-73.5 -293.5zM412 410q80 -111 198.5 -173.5t253.5 -62.5t230 68q-129 96 -250 149t-256 53q-104 0 -176 -34z" />
<glyph unicode="R" horiz-adv-x="1216" d="M133 0v1516h469q274 0 404 -127q70 -68 104.5 -162t34.5 -197q0 -158 -72 -271.5t-215 -164.5q-78 -29 -147 -29l424 -565h-277l-500 702h-4v-702h-221zM354 733h152q178 0 298 66.5t120 230.5q0 137 -97.5 210t-238.5 73h-234v-580z" />
<glyph unicode="S" horiz-adv-x="1021" d="M37 449h221q0 -117 65.5 -196t180.5 -79q113 0 178.5 71.5t65.5 184.5q0 76 -32 121t-77 68.5t-135 58.5q-154 59 -236 104t-135 128t-53 223q0 115 57.5 209t154.5 148t212 54q125 0 224 -52t154.5 -148.5t55.5 -221.5h-221q0 98 -57.5 158.5t-155.5 60.5 q-82 0 -142.5 -61t-60.5 -145q0 -63 34 -105.5t85 -67t143 -59.5q127 -45 208 -90t139.5 -137t58.5 -246q0 -135 -59.5 -238.5t-166 -162t-239.5 -58.5q-135 0 -241.5 61.5t-166 171t-59.5 245.5z" />
<glyph unicode="T" horiz-adv-x="833" d="M14 1313v203h803v-203h-291v-1313h-221v1313h-291z" />
<glyph unicode="U" horiz-adv-x="1316" d="M150 489v1027h221v-1020q0 -141 74.5 -231.5t211.5 -90.5t212 90t75 232v1020h221v-1027q1 -252 -153 -389q-143 -129 -355 -129q-209 0 -354 129q-154 137 -153 389z" />
<glyph unicode="V" horiz-adv-x="1400" d="M25 1516h237l440 -1137l441 1137h233l-608 -1516h-133z" />
<glyph unicode="W" horiz-adv-x="1855" d="M33 1516h229l289 -1141h4l293 1141h162l288 -1133h5l294 1133h226l-424 -1516h-195l-274 1059h-4l-275 -1059h-194z" />
<glyph unicode="X" horiz-adv-x="1327" d="M23 0l501 760l-501 756h264l375 -574l378 574h263l-506 -756l501 -760h-260l-376 578l-381 -578h-258z" />
<glyph unicode="Y" horiz-adv-x="1214" d="M27 1516h247l334 -711l332 711h246l-467 -969v-547h-221v547z" />
<glyph unicode="Z" horiz-adv-x="946" d="M8 0v203l658 1110h-623v203h870v-203l-653 -1110h680v-203h-932z" />
<glyph unicode="[" horiz-adv-x="833" d="M256 29v927q0 207 111.5 360.5t306.5 229.5v-248q-106 -68 -152.5 -153.5t-46.5 -210.5v-830q0 -135 43 -223t156 -155v-252q-115 45 -210 128t-151.5 194.5t-56.5 232.5z" />
<glyph unicode="\" horiz-adv-x="1021" d="M115 1516h233l590 -1721h-233z" />
<glyph unicode="]" horiz-adv-x="833" d="M160 -274q113 68 155.5 155.5t42.5 222.5v830q0 125 -46 211t-152 153v248q195 -76 306.5 -229.5t111.5 -360.5v-927q0 -121 -56.5 -232.5t-152 -194.5t-209.5 -128v252z" />
<glyph unicode="^" horiz-adv-x="1228" d="M135 727l383 789h193l383 -789h-213l-267 573l-266 -573h-213z" />
<glyph unicode="_" horiz-adv-x="1024" d="M0 -154h1024v-102h-1024v102z" />
<glyph unicode="`" d="M270 1477l90 163l457 -262l-86 -153z" />
<glyph unicode="a" horiz-adv-x="1419" d="M78 563q0 170 79 307.5t216 216t307 78.5q119 0 221.5 -48t163.5 -142h4v160h213v-1135h-213v176h-4q-57 -100 -160.5 -152.5t-224.5 -52.5q-168 0 -306 77t-217 212t-79 303zM291 565q0 -104 51 -196.5t140 -147.5t196 -55q109 0 200 54t143 145.5t52 199.5 q0 113 -50 206t-140 146.5t-203 53.5q-111 0 -200 -55.5t-139 -147.5t-50 -203z" />
<glyph unicode="b" horiz-adv-x="1409" d="M137 0v1516h213v-539h4q68 92 169.5 140t219.5 48q160 0 295.5 -82t214 -219t78.5 -297q0 -161 -76.5 -298.5t-211 -217.5t-295.5 -80q-117 0 -222.5 50.5t-173.5 142.5h-4v-164h-211zM344 571q0 -111 50 -204t138.5 -147t198.5 -54q106 0 195.5 55t140.5 148.5t51 197.5 q0 107 -51 200t-139 148.5t-197 55.5q-106 0 -195.5 -54.5t-140.5 -146.5t-51 -199z" />
<glyph unicode="c" horiz-adv-x="1284" d="M78 569q0 164 75.5 300.5t210 216t298.5 79.5q123 0 239.5 -51t201.5 -144t116 -212h-236q-102 213 -319 213q-113 0 -198 -53.5t-130 -144.5t-45 -204q0 -109 45 -201t129 -147t194 -55q109 0 193 55t129 154h238q-64 -185 -214.5 -294.5t-345.5 -109.5q-166 0 -299 80 t-207.5 217.5t-74.5 300.5z" />
<glyph unicode="d" horiz-adv-x="1406" d="M78 563q0 168 75.5 306.5t210 217t304.5 78.5q113 0 216 -44t169 -126h4v521h213v-1516h-197v162h-4q-68 -94 -173 -142.5t-228 -48.5q-168 0 -302.5 77t-211 213t-76.5 302zM291 565q0 -104 51 -196.5t140 -147.5t196 -55q109 0 200 54t143 145.5t52 199.5 q0 113 -50 206t-140 146.5t-203 53.5q-111 0 -200 -55.5t-139 -147.5t-50 -203z" />
<glyph unicode="e" horiz-adv-x="1314" d="M80 569q0 162 76.5 299.5t210 217t295.5 79.5q158 0 290.5 -78.5t209.5 -213t77 -291.5q0 -54 -6 -107h-940q33 -135 134 -222t239 -87q100 0 189 51t134 139h213q-66 -174 -213 -279.5t-332 -105.5q-158 0 -291 83t-209.5 220.5t-76.5 294.5zM293 639h733 q-6 90 -58.5 167t-134 121t-174.5 44q-92 0 -174 -44t-134 -121t-58 -167z" />
<glyph unicode="f" horiz-adv-x="567" d="M43 940v195h100v55q0 178 136 264q66 41 121 51.5t155 10.5v-195q-199 0 -199 -131v-55h199v-195h-199v-940h-213v940h-100z" />
<glyph unicode="g" horiz-adv-x="1427" d="M78 571q0 131 61 254q78 162 222.5 251t326.5 89q109 0 216.5 -42t174.5 -119v131h213v-981q0 -285 -164.5 -442.5t-449.5 -157.5q-188 0 -336.5 94t-222.5 264h237q115 -164 324 -164q195 0 297 103.5t102 298.5h-4q-66 -90 -169 -134.5t-222 -44.5q-160 0 -300 82 t-223 220.5t-83 297.5zM291 567q0 -106 52 -198.5t142 -147.5t197 -55q123 0 217 64.5t143 177.5q37 80 37 157q0 133 -62.5 230.5t-182.5 144.5q-78 31 -150 31q-109 0 -199 -55.5t-142 -147.5t-52 -201z" />
<glyph unicode="h" horiz-adv-x="1273" d="M135 0v1516h213v-502h4q99 151 315 151h3q127 0 232.5 -51t168.5 -151q72 -111 72 -291v-672h-213v616q0 354 -283 355q-150 0 -224.5 -99.5t-74.5 -253.5v-618h-213z" />
<glyph unicode="i" horiz-adv-x="487" d="M137 0v1135h213v-1135h-213zM137 1266v250h213v-250h-213z" />
<glyph unicode="j" horiz-adv-x="509" d="M23 -223q70 4 100.5 41t35.5 81t5 134v1102h213v-1129q0 -92 -6 -146.5t-32 -106.5t-83 -101q-49 -43 -111.5 -70.5t-121.5 -27.5v223zM164 1266v250h213v-250h-213z" />
<glyph unicode="k" horiz-adv-x="1118" d="M158 0v1516h213v-1516h-213zM375 588l403 547h252l-412 -535l478 -600h-267z" />
<glyph unicode="l" horiz-adv-x="487" d="M137 0v1516h213v-1516h-213z" />
<glyph unicode="m" horiz-adv-x="1988" d="M137 0v1135h197v-123h4q72 84 143.5 118.5t182.5 34.5q109 0 209 -50t143 -140q63 102 154.5 146t220.5 44q223 0 342.5 -129t119.5 -352v-684h-213v631q0 340 -268 340q-154 0 -212 -89t-58 -249v-633h-213v631q0 82 -8.5 132t-38.5 101q-70 106 -211 107 q-281 0 -281 -338v-633h-213z" />
<glyph unicode="n" horiz-adv-x="1277" d="M135 0v1135h199v-121h4q114 151 329 151h3q127 0 232.5 -51t168.5 -151q72 -111 72 -291v-672h-213v616q0 354 -283 355q-150 0 -224.5 -99.5t-74.5 -253.5v-618h-213z" />
<glyph unicode="o" horiz-adv-x="1382" d="M78 575q0 164 84 299.5t225 213t303 77.5q164 0 305.5 -78.5t224.5 -215t83 -300.5q0 -159 -82 -297.5t-222.5 -220.5t-308.5 -82q-164 0 -305 81t-224 220.5t-83 302.5zM291 569q0 -109 53 -202t145.5 -147t200.5 -54q109 0 201 55t145.5 148.5t53.5 201.5 q0 109 -53.5 201t-145.5 145.5t-201 53.5t-201 -54.5t-145 -146.5t-53 -201z" />
<glyph unicode="p" horiz-adv-x="1404" d="M137 -379v1514h195v-174h4q70 100 175 152t228 52q172 0 305.5 -80.5t208 -221t74.5 -310.5q0 -160 -75.5 -293t-207 -211t-290.5 -78q-123 0 -232.5 48.5t-167.5 144.5h-4v-543h-213zM346 569q0 -109 49 -202t137.5 -147t198.5 -54q109 0 197 54t137 145.5t49 199.5 q0 107 -52 200t-141.5 149.5t-195.5 56.5t-193.5 -55.5t-136.5 -147.5t-49 -199z" />
<glyph unicode="q" horiz-adv-x="1406" d="M80 569q0 164 78 300.5t212 216t298 79.5q213 0 358 -133q27 -23 43 -49h4v152h197v-1514h-213v537h-4q-61 -88 -164 -137.5t-215 -49.5q-166 0 -301 80t-214 217.5t-79 300.5zM293 569q0 -111 51 -203t141 -146t201 -54q106 0 196.5 54t141.5 145.5t51 197.5 q0 113 -50 206t-140 147.5t-203 54.5q-111 0 -200 -53.5t-139 -145.5t-50 -203z" />
<glyph unicode="r" horiz-adv-x="655" d="M137 0v1135h199v-103h4q90 127 289 133v-219q-80 0 -154 -41q-125 -63 -125 -284v-621h-213z" />
<glyph unicode="s" horiz-adv-x="868" d="M41 373h213q6 -94 54 -150.5t138 -56.5q72 0 118 42t46 114q0 70 -51 105.5t-158 72.5q-98 35 -159.5 68.5t-105.5 98t-44 171.5q0 94 49 168.5t131 116.5t177 42q96 0 174.5 -42t125 -117.5t48.5 -171.5h-213q-8 63 -45 100t-101 37q-55 0 -94 -33t-39 -88 q0 -47 25.5 -74.5t56.5 -40t94 -33.5q162 -49 252 -133t90 -235q0 -109 -49 -192t-136 -127t-196 -44q-70 0 -145 27q-125 45 -190.5 142.5t-65.5 232.5z" />
<glyph unicode="t" horiz-adv-x="567" d="M8 940v195h154v381h213v-381h186v-195h-186v-940h-213v940h-154z" />
<glyph unicode="u" horiz-adv-x="1277" d="M135 520v615h213v-615q0 -166 63.5 -260t219.5 -94q154 0 225.5 100.5t71.5 259.5v609h213v-1135h-195v123h-4q-45 -78 -138 -115t-196 -37q-193 0 -323 113q-150 129 -150 436z" />
<glyph unicode="v" horiz-adv-x="1099" d="M27 1135h227l297 -811h4l291 811h227l-446 -1135h-150z" />
<glyph unicode="w" horiz-adv-x="1628" d="M27 1135h227l252 -738h4l235 738h140l235 -738h4l250 738h228l-420 -1135h-119l-246 764h-4l-246 -764h-116z" />
<glyph unicode="x" horiz-adv-x="1060" d="M4 0l393 582l-379 553h258l250 -373l248 373h258l-370 -553l395 -582h-250l-281 403l-274 -403h-248z" />
<glyph unicode="y" horiz-adv-x="1175" d="M20 1135h230l334 -881l342 881h229l-627 -1514h-221l166 402z" />
<glyph unicode="z" horiz-adv-x="833" d="M6 0v166l545 774h-492v195h725v-207l-514 -733h557v-195h-821z" />
<glyph unicode="{" horiz-adv-x="681" d="M29 473v176q76 0 132 48t56 122v420q0 121 80 199t201 78h133v-162h-90q-111 0 -111 -150v-413q0 -92 -56.5 -154t-146.5 -72v-6q203 -27 203 -242v-411q0 -150 111 -150h90v-162h-133q-121 0 -201 78t-80 199v418q0 78 -55.5 131t-132.5 53z" />
<glyph unicode="|" d="M453 -205v1721h231v-1721h-231z" />
<glyph unicode="}" horiz-adv-x="681" d="M51 -244h90q111 0 111 150v413q0 92 56.5 154t146.5 72v6q-203 29 -203 242v411q0 150 -111 150h-90v162h133q121 0 201 -78t80 -199v-418q0 -78 55 -131t133 -53v-176q-75 0 -131.5 -48t-56.5 -122v-420q0 -121 -80 -199t-201 -78h-133v162z" />
<glyph unicode="~" horiz-adv-x="1331" d="M131 588q68 92 139.5 140t175.5 48q117 0 234 -63q115 -68 199 -68q94 0 182 137l141 -161q-67 -95 -141 -142t-176 -47q-123 0 -236 66t-194 65q-96 0 -183 -137z" />
<glyph unicode="&#xa1;" horiz-adv-x="567" d="M176 -379v1137h213v-1137h-213zM176 887v250h213v-250h-213z" />
<glyph unicode="&#xa2;" d="M78 836q0 186 111.5 317t295.5 166v197h195v-197q137 -20 234.5 -105.5t144.5 -220.5h-244q-29 62 -92.5 91.5t-136.5 29.5q-125 0 -210 -82t-85 -207q0 -80 40 -145.5t107.5 -102t147.5 -36.5q152 0 227 112h240q-43 -123 -141.5 -202.5t-231.5 -108.5v-201h-195v201 q-186 41 -296.5 173t-110.5 321z" />
<glyph unicode="&#xa3;" d="M18 670v194h82q-47 78 -47 185q0 145 64.5 257.5t178.5 175t259 62.5q123 0 227.5 -52t175 -145.5t95.5 -211.5h-232q-66 215 -272 215q-127 0 -205 -87t-78 -214q0 -111 76 -185h449v-194h-287q109 -96 108 -297q0 -82 -26 -178h67q115 0 183.5 66.5t68.5 180.5 q0 53 -28 115h229q12 -55 12 -113q0 -206 -127 -325t-338 -119h-567v195h270q43 80 43 182q0 190 -151 293h-230z" />
<glyph unicode="&#xa4;" horiz-adv-x="1208" d="M35 1155l112 113l170 -170q129 94 287 94q160 0 283 -92l170 166l110 -111l-166 -166q96 -135 97 -291q0 -152 -94 -280l165 -166l-110 -113l-162 164q-135 -96 -293 -96t-293 96l-164 -162l-110 109l168 168q-96 129 -96 280q0 162 98 289zM311 698q0 -78 40 -144.5 t107.5 -106t145.5 -39.5t145.5 39.5t106.5 107.5t39 145q0 78 -39 145.5t-105.5 107.5t-146.5 40t-147.5 -40t-106.5 -107.5t-39 -147.5z" />
<glyph unicode="&#xa5;" d="M0 1516h231l336 -611l338 611h232l-295 -521h254v-176h-342l-80 -145v-88h422v-176h-422v-410h-213v410h-420v176h420v88l-80 145h-340v176h252z" />
<glyph unicode="&#xa6;" d="M453 -205v688h231v-688h-231zM453 827v689h231v-689h-231z" />
<glyph unicode="&#xa7;" horiz-adv-x="1173" d="M84 655q0 205 190 318q-80 111 -79 215q0 72 36 149q49 102 143.5 154.5t213.5 52.5q178 0 286.5 -104.5t129.5 -282.5h-213q-31 184 -195 184q-82 0 -135 -44t-53 -123q0 -57 36.5 -91t106.5 -71l278 -146q127 -66 196 -137.5t69 -189.5q-1 -195 -185 -316 q121 -104 121 -264q0 -123 -59.5 -217t-160.5 -145.5t-222 -51.5q-129 0 -229.5 56.5t-158 157t-63.5 229.5h213q8 -111 70.5 -175.5t173.5 -64.5q96 0 159.5 54.5t63.5 150.5q0 74 -48 119t-136 90l-314 162q-119 61 -177 134.5t-58 196.5zM297 674q0 -51 28.5 -95 t75.5 -67l367 -188q57 49 85 89t28 99q0 63 -35 98t-103 70l-342 174q-47 -31 -75.5 -79t-28.5 -101z" />
<glyph unicode="&#xa8;" d="M301 1298v250h213v-250h-213zM618 1298v250h213v-250h-213z" />
<glyph unicode="&#xa9;" horiz-adv-x="1638" d="M37 758q0 213 105.5 393t285.5 284.5t393 104.5t392.5 -105.5t284 -285.5t104.5 -391t-105.5 -391.5t-285 -286t-390.5 -105.5q-213 0 -393 104.5t-285.5 285t-105.5 393.5zM201 758q0 -170 82 -313.5t224 -228.5t312 -85t312.5 85t224.5 228.5t82 313.5t-82 313 t-224.5 228t-312.5 85t-312 -85t-224 -228t-82 -313zM391 760q0 131 54.5 237.5t153.5 168t232 61.5q94 0 180.5 -38t144.5 -108.5t69 -165.5h-154q-53 166 -240 166q-86 0 -151.5 -44t-100 -117.5t-34.5 -159.5q0 -137 75.5 -229.5t210.5 -92.5q188 0 240 166h154 q-11 -94 -69 -164.5t-144 -108.5t-181 -38q-133 0 -232 61.5t-153.5 168t-54.5 237.5z" />
<glyph unicode="&#xaa;" horiz-adv-x="849" d="M53 1210q0 94 44 171t121 120t171 43q51 0 101.5 -23.5t76.5 -64.5h4v72h164v-631h-164v72h-4q-23 -41 -77 -64.5t-105 -23.5q-92 0 -168 43t-120 118.5t-44 167.5zM217 1210q0 -72 50 -124t120 -52q82 0 134 48t52 130q0 78 -53 128.5t-131 50.5q-76 0 -124 -52.5 t-48 -128.5z" />
<glyph unicode="&#xab;" horiz-adv-x="757" d="M68 483v211l280 279v-232l-153 -151l153 -152v-229zM410 483v211l280 279v-232l-153 -151l153 -152v-229z" />
<glyph unicode="&#xac;" horiz-adv-x="1228" d="M98 635v213h1032v-627h-212v414h-820z" />
<glyph unicode="&#xad;" horiz-adv-x="573" d="M0 485v213h573v-213h-573z" />
<glyph unicode="&#xae;" horiz-adv-x="1638" d="M37 758q0 213 105.5 393t285.5 284.5t393 104.5t392.5 -105.5t284 -285.5t104.5 -391t-105.5 -391.5t-285 -286t-390.5 -105.5q-213 0 -393 104.5t-285.5 285t-105.5 393.5zM201 758q0 -170 82 -313.5t224 -228.5t312 -85t312.5 85t224.5 228.5t82 313.5t-82 313 t-224.5 228t-312.5 85t-312 -85t-224 -228t-82 -313zM485 303v895h385q133 0 220.5 -57.5t87.5 -186.5q0 -84 -42 -140t-124 -77v-4q86 -25 114.5 -75t34.5 -148q0 -14 1 -60.5t7.5 -84t20.5 -62.5h-154q-14 23 -19 58.5t-6 66.5t-1 41q-4 76 -18.5 116t-54.5 58.5 t-116 18.5h-182v-359h-154zM639 805h197q188 0 188 143q0 15 -10 35q-29 70 -170 70h-205v-248z" />
<glyph unicode="&#xaf;" d="M201 1335v170h733v-170h-733z" />
<glyph unicode="&#xb0;" horiz-adv-x="819" d="M117 1165q0 80 39 147.5t106.5 106.5t147.5 39t147.5 -39t106 -106.5t38.5 -147.5t-38.5 -147.5t-106.5 -106.5t-147 -39q-80 0 -147.5 39t-106.5 106.5t-39 147.5zM244 1167q0 -70 49 -122t117 -52t116.5 52.5t48.5 121.5q0 68 -49 119t-116 51q-68 0 -117 -51t-49 -119 z" />
<glyph unicode="&#xb1;" horiz-adv-x="1228" d="M98 0v213h1032v-213h-1032zM98 680v213h410v332h213v-332h409v-213h-409v-332h-213v332h-410z" />
<glyph unicode="&#xb2;" horiz-adv-x="718" d="M51 1454v41q0 80 40 148.5t108.5 109.5t148.5 41q82 0 150.5 -40t109.5 -108.5t41 -150.5q0 -74 -30.5 -131t-90.5 -117l-225 -227h348v-156h-594v127l349 352q80 80 79 152q0 59 -36.5 101t-94.5 42q-61 0 -100 -42t-39 -105v-37h-164z" />
<glyph unicode="&#xb3;" horiz-adv-x="686" d="M33 1143h164q4 -68 43 -106t104 -38q61 0 100 39t39 101q0 63 -42 102t-105 39h-53v156h51q49 0 78.5 28.5t29.5 77.5q0 45 -26.5 70.5t-71.5 25.5t-69.5 -27.5t-26.5 -74.5h-164q0 109 76 183.5t184 74.5q111 0 186.5 -77t75.5 -187q0 -55 -19.5 -93t-62.5 -77 q123 -72 123 -221q0 -82 -43 -149.5t-114.5 -106.5t-153.5 -39q-84 0 -152.5 39t-109.5 107.5t-41 152.5z" />
<glyph unicode="&#xb4;" d="M324 1386l456 263l90 -166l-460 -250z" />
<glyph unicode="&#xb5;" horiz-adv-x="1277" d="M152 -379v1514h213v-553q0 -205 47 -291q33 -59 90 -92t125 -33q287 0 286 438v531h213v-1135h-213v123h-4q-92 -152 -282 -152q-74 0 -143.5 28t-114.5 79h-4v-457h-213z" />
<glyph unicode="&#xb6;" horiz-adv-x="1306" d="M4 1061q0 209 134 291t358 82h600v-1825h-213v1661h-217v-1661h-213v1093q-190 0 -319.5 89.5t-129.5 269.5z" />
<glyph unicode="&#xb7;" horiz-adv-x="567" d="M190 410v221h187v-221h-187z" />
<glyph unicode="&#xb8;" d="M377 -299h110q8 -29 30 -46t50 -17q37 0 59.5 24.5t22.5 63.5q0 33 -22.5 56t-57.5 23q-41 0 -67 -38l-94 43l90 190h120l-55 -113q17 7 35 7q72 0 117 -48.5t45 -119.5q0 -84 -54.5 -135.5t-138.5 -51.5q-76 0 -128 43t-62 119z" />
<glyph unicode="&#xb9;" horiz-adv-x="503" d="M68 1618v156h290v-910h-163v754h-127z" />
<glyph unicode="&#xba;" horiz-adv-x="788" d="M53 1217q0 90 47 165.5t125 118.5t168 43q92 0 170 -44t124 -118.5t46 -167.5q0 -90 -47 -166.5t-125 -121.5t-168 -45t-169 45t-125 121.5t-46 169.5zM217 1212q0 -74 51 -126t125 -52t125 53.5t51 126.5q0 74 -51 125.5t-125 51.5t-125 -52.5t-51 -126.5z" />
<glyph unicode="&#xbb;" horiz-adv-x="757" d="M68 209v229l153 152l-153 151v232l280 -279v-211zM410 209v229l153 152l-153 151v232l280 -279v-211z" />
<glyph unicode="&#xbc;" horiz-adv-x="1433" d="M33 1360v156h291v-910h-164v754h-127zM260 0l682 1516h150l-682 -1516h-150zM737 141v142l426 626h140v-628h98v-140h-98v-141h-144v141h-422zM907 281h252v389h-4z" />
<glyph unicode="&#xbd;" horiz-adv-x="1462" d="M33 1360v156h291v-910h-164v754h-127zM211 0l682 1516h149l-682 -1516h-149zM829 590v41q0 80 40 148.5t109 109.5t148 41q82 0 151 -40t109.5 -108.5t40.5 -150.5q0 -74 -30.5 -131.5t-89.5 -116.5l-226 -227h349v-156h-594v127l348 352q80 80 80 152q0 59 -37 101 t-94 42q-61 0 -100.5 -42t-39.5 -105v-37h-164z" />
<glyph unicode="&#xbe;" horiz-adv-x="1599" d="M33 885h164q4 -68 43 -106t104 -38q61 0 100 39t39 101q0 63 -42 102t-105 39h-53v156h51q49 0 78.5 28.5t29.5 77.5q0 45 -26.5 70.5t-71.5 25.5t-69.5 -27.5t-26.5 -74.5h-164q0 109 76 183.5t184 74.5q111 0 186.5 -77t75.5 -187q0 -55 -19.5 -93t-62.5 -77 q123 -72 123 -221q0 -82 -43 -149.5t-114.5 -106.5t-153.5 -39q-84 0 -152.5 39t-109.5 107.5t-41 152.5zM426 0l682 1516h149l-682 -1516h-149zM903 141v142l426 626h139v-628h99v-140h-99v-141h-143v141h-422zM1073 281h252v389h-4z" />
<glyph unicode="&#xbf;" horiz-adv-x="1060" d="M82 51q0 84 20.5 143.5t57.5 105.5t104 110q90 84 126 151.5t50 186.5h213q-2 -137 -55 -243t-158 -212l-28 -29q-59 -59 -88 -102t-29 -103q0 -102 69.5 -177t172.5 -75q61 0 114.5 30t87.5 81q33 53 43 135h213q-6 -149 -79.5 -262t-208.5 -166q-88 -33 -172 -33 q-123 0 -226.5 62.5t-165 168t-61.5 228.5zM440 887v250h213v-250h-213z" />
<glyph unicode="&#xc0;" horiz-adv-x="1400" d="M27 0l575 1516h199l575 -1516h-235l-168 446h-545l-168 -446h-233zM387 1843l86 154l461 -252l-90 -164zM506 649h391l-192 580h-5z" />
<glyph unicode="&#xc1;" horiz-adv-x="1400" d="M27 0l575 1516h199l575 -1516h-235l-168 446h-545l-168 -446h-233zM469 1735l457 262l90 -166l-461 -250zM506 649h391l-192 580h-5z" />
<glyph unicode="&#xc2;" horiz-adv-x="1400" d="M27 0l575 1516h199l575 -1516h-235l-168 446h-545l-168 -446h-233zM313 1624l285 277h205l287 -277h-244l-141 141l-148 -141h-244zM506 649h391l-192 580h-5z" />
<glyph unicode="&#xc3;" horiz-adv-x="1400" d="M27 0l575 1516h199l575 -1516h-235l-168 446h-545l-168 -446h-233zM326 1784q123 80 211 80q39 0 145 -29q115 -27 143 -27q33 0 64 11.5t59.5 26t40.5 20.5l88 -129q-117 -95 -223 -95q-33 0 -147 27q-98 27 -142 27q-57 0 -143 -45zM506 649h391l-192 580h-5z" />
<glyph unicode="&#xc4;" horiz-adv-x="1400" d="M27 0l575 1516h199l575 -1516h-235l-168 446h-545l-168 -446h-233zM436 1632v250h213v-250h-213zM506 649h391l-192 580h-5zM754 1632v250h213v-250h-213z" />
<glyph unicode="&#xc5;" horiz-adv-x="1400" d="M27 0l575 1516h199l575 -1516h-235l-168 446h-545l-168 -446h-233zM475 1784q0 96 66.5 161.5t160.5 65.5q93 0 159.5 -67.5t66.5 -159.5t-67.5 -158.5t-160.5 -66.5q-92 0 -158.5 66.5t-66.5 158.5zM506 649h391l-192 580h-5zM592 1786q0 -45 31.5 -76t76.5 -31t77 31 t32 76t-32 76.5t-79 31.5q-45 0 -75.5 -31.5t-30.5 -76.5z" />
<glyph unicode="&#xc6;" horiz-adv-x="1904" d="M0 0l1018 1516h756v-203h-517v-447h517v-202h-517v-461h517v-203h-738v420h-499l-277 -420h-260zM682 623h354v565h-6z" />
<glyph unicode="&#xc7;" horiz-adv-x="1601" d="M78 764q0 213 104.5 392t283.5 283.5t392 104.5q123 0 244 -39t219 -108q137 -98 233 -269h-266q-186 213 -426 213q-156 0 -284.5 -78.5t-203.5 -211.5t-75 -289q0 -152 75 -288t203 -218t281 -82q117 0 226.5 54.5t187.5 146.5h272q-109 -193 -291 -298.5t-403 -105.5 l-35 -110q18 2 41 2q72 0 120 -50.5t48 -121.5q0 -86 -57.5 -140.5t-143.5 -54.5q-76 0 -129 47t-61 121h108q6 -31 30 -47t54 -16q37 0 61.5 23.5t24.5 60.5t-24.5 58t-61.5 21q-41 0 -69 -28l-70 65l59 181q-188 27 -340.5 139t-239.5 282t-87 361z" />
<glyph unicode="&#xc8;" horiz-adv-x="1064" d="M133 0v1516h817v-203h-596v-447h596v-202h-596v-461h596v-203h-817zM221 1845l90 164l457 -262l-86 -154z" />
<glyph unicode="&#xc9;" horiz-adv-x="1064" d="M133 0v1516h817v-203h-596v-447h596v-202h-596v-461h596v-203h-817zM301 1745l457 262l90 -166l-461 -250z" />
<glyph unicode="&#xca;" horiz-adv-x="1064" d="M133 0v1516h817v-203h-596v-447h596v-202h-596v-461h596v-203h-817zM145 1624l285 277h205l287 -277h-244l-141 141l-148 -141h-244z" />
<glyph unicode="&#xcb;" horiz-adv-x="1064" d="M133 0v1516h817v-203h-596v-447h596v-202h-596v-461h596v-203h-817zM268 1642v250h213v-250h-213zM586 1642v250h213v-250h-213z" />
<glyph unicode="&#xcc;" horiz-adv-x="526" d="M-131 1845l90 164l457 -262l-86 -154zM154 0v1516h221v-1516h-221z" />
<glyph unicode="&#xcd;" horiz-adv-x="526" d="M113 1745l456 262l90 -166l-460 -250zM154 0v1516h221v-1516h-221z" />
<glyph unicode="&#xce;" horiz-adv-x="526" d="M-125 1624l285 277h205l286 -277h-243l-142 141l-147 -141h-244zM154 0v1516h221v-1516h-221z" />
<glyph unicode="&#xcf;" horiz-adv-x="526" d="M-2 1642v250h213v-250h-213zM154 0v1516h221v-1516h-221zM315 1642v250h213v-250h-213z" />
<glyph unicode="&#xd0;" horiz-adv-x="1540" d="M45 659v203h129v654h496q193 0 352.5 -67t261.5 -212q74 -102 115 -229t41 -254q0 -142 -50.5 -293.5t-140.5 -241.5q-221 -219 -587 -219h-488v659h-129zM395 203h269q170 0 294.5 66.5t192.5 190.5t68 294q-1 118 -48 231q-66 160 -196.5 244t-306.5 84h-273v-451h396 v-203h-396v-456z" />
<glyph unicode="&#xd1;" horiz-adv-x="1511" d="M154 0v1516h241l738 -1154h4v1154h221v-1516h-230l-749 1171h-4v-1171h-221zM381 1784q123 80 211 80q39 0 145 -29q115 -27 144 -27q33 0 63.5 11.5t59 26t40.5 20.5l89 -129q-118 -95 -224 -95q-33 0 -147 27q-98 27 -141 27q-57 0 -144 -45z" />
<glyph unicode="&#xd2;" horiz-adv-x="1732" d="M78 758q0 215 105.5 395t286.5 285.5t396 105.5q217 0 398.5 -105.5t286 -286.5t104.5 -398q0 -213 -106.5 -392.5t-288 -285t-394.5 -105.5t-394 105.5t-287.5 287t-106.5 394.5zM299 758q0 -119 53 -246q72 -160 206 -249t308 -89q186 0 324.5 99.5t204.5 275.5 q39 100 39 203q0 159 -74 294.5t-203 215t-291 79.5q-176 0 -310 -90t-204 -252q-53 -123 -53 -241zM555 1845l90 164l457 -262l-86 -154z" />
<glyph unicode="&#xd3;" horiz-adv-x="1732" d="M78 758q0 215 105.5 395t286.5 285.5t396 105.5q217 0 398.5 -105.5t286 -286.5t104.5 -398q0 -213 -106.5 -392.5t-288 -285t-394.5 -105.5t-394 105.5t-287.5 287t-106.5 394.5zM299 758q0 -119 53 -246q72 -160 206 -249t308 -89q186 0 324.5 99.5t204.5 275.5 q39 100 39 203q0 159 -74 294.5t-203 215t-291 79.5q-176 0 -310 -90t-204 -252q-53 -123 -53 -241zM635 1745l457 262l90 -166l-461 -250z" />
<glyph unicode="&#xd4;" horiz-adv-x="1732" d="M78 758q0 215 105.5 395t286.5 285.5t396 105.5q217 0 398.5 -105.5t286 -286.5t104.5 -398q0 -213 -106.5 -392.5t-288 -285t-394.5 -105.5t-394 105.5t-287.5 287t-106.5 394.5zM299 758q0 -119 53 -246q72 -160 206 -249t308 -89q186 0 324.5 99.5t204.5 275.5 q39 100 39 203q0 159 -74 294.5t-203 215t-291 79.5q-176 0 -310 -90t-204 -252q-53 -123 -53 -241zM479 1624l285 277h205l286 -277h-243l-142 141l-147 -141h-244z" />
<glyph unicode="&#xd5;" horiz-adv-x="1732" d="M78 758q0 215 105.5 395t286.5 285.5t396 105.5q217 0 398.5 -105.5t286 -286.5t104.5 -398q0 -213 -106.5 -392.5t-288 -285t-394.5 -105.5t-394 105.5t-287.5 287t-106.5 394.5zM299 758q0 -119 53 -246q72 -160 206 -249t308 -89q186 0 324.5 99.5t204.5 275.5 q39 100 39 203q0 159 -74 294.5t-203 215t-291 79.5q-176 0 -310 -90t-204 -252q-53 -123 -53 -241zM492 1784q123 80 210 80q39 0 146 -29q115 -27 143 -27q33 0 63.5 11.5t59.5 26l41 20.5l88 -129q-117 -95 -223 -95q-33 0 -148 27q-98 27 -141 27q-57 0 -143 -45z" />
<glyph unicode="&#xd6;" horiz-adv-x="1732" d="M78 758q0 215 105.5 395t286.5 285.5t396 105.5q217 0 398.5 -105.5t286 -286.5t104.5 -398q0 -213 -106.5 -392.5t-288 -285t-394.5 -105.5t-394 105.5t-287.5 287t-106.5 394.5zM299 758q0 -119 53 -246q72 -160 206 -249t308 -89q186 0 324.5 99.5t204.5 275.5 q39 100 39 203q0 159 -74 294.5t-203 215t-291 79.5q-176 0 -310 -90t-204 -252q-53 -123 -53 -241zM602 1642v250h213v-250h-213zM920 1642v250h213v-250h-213z" />
<glyph unicode="&#xd7;" horiz-adv-x="1228" d="M125 176l342 342l-342 342l147 148l342 -342l342 342l148 -148l-344 -342l344 -342l-148 -147l-342 344l-342 -344z" />
<glyph unicode="&#xd8;" horiz-adv-x="1732" d="M78 758q0 215 105.5 395t285.5 285.5t395 105.5q217 0 385 -96l142 194l170 -118l-146 -199q113 -102 176.5 -256t63.5 -311q0 -213 -106.5 -394.5t-288 -287t-394.5 -105.5q-209 0 -374 92l-144 -196l-164 115l146 200q-252 242 -252 576zM299 758q0 -109 41 -214.5 t115 -189.5l673 926q-115 61 -260 61q-178 0 -313 -91t-207 -257q-49 -119 -49 -235zM616 227q104 -53 250 -53q160 0 290 79t204 212t74 293q-1 215 -146 393z" />
<glyph unicode="&#xd9;" horiz-adv-x="1316" d="M150 489v1027h221v-1020q0 -141 74.5 -231.5t211.5 -90.5t212 90t75 232v1020h221v-1027q1 -252 -153 -389q-143 -129 -355 -129q-209 0 -354 129q-154 137 -153 389zM295 1845l90 164l457 -262l-86 -154z" />
<glyph unicode="&#xda;" horiz-adv-x="1316" d="M150 489v1027h221v-1020q0 -141 74.5 -231.5t211.5 -90.5t212 90t75 232v1020h221v-1027q1 -252 -153 -389q-143 -129 -355 -129q-209 0 -354 129q-154 137 -153 389zM477 1745l457 262l90 -166l-461 -250z" />
<glyph unicode="&#xdb;" horiz-adv-x="1316" d="M150 489v1027h221v-1020q0 -141 74.5 -231.5t211.5 -90.5t212 90t75 232v1020h221v-1027q1 -252 -153 -389q-143 -129 -355 -129q-209 0 -354 129q-154 137 -153 389zM270 1624l285 277h205l287 -277h-244l-141 141l-148 -141h-244z" />
<glyph unicode="&#xdc;" horiz-adv-x="1316" d="M150 489v1027h221v-1020q0 -141 74.5 -231.5t211.5 -90.5t212 90t75 232v1020h221v-1027q1 -252 -153 -389q-143 -129 -355 -129q-209 0 -354 129q-154 137 -153 389zM393 1642v250h213v-250h-213zM711 1642v250h213v-250h-213z" />
<glyph unicode="&#xdd;" horiz-adv-x="1214" d="M27 1516h247l334 -711l332 711h246l-467 -969v-547h-221v547zM426 1745l457 262l90 -166l-461 -250z" />
<glyph unicode="&#xde;" horiz-adv-x="1144" d="M133 0v1516h221v-279h217q240 0 387.5 -113.5t147.5 -345.5q0 -231 -147.5 -345t-387.5 -114h-217v-319h-221zM354 522h217q137 0 225.5 62.5t88.5 193.5t-88 193.5t-226 62.5h-217v-512z" />
<glyph unicode="&#xdf;" horiz-adv-x="1310" d="M135 0v1057q0 158 67.5 276.5t205.5 175.5q86 35 172 35q121 0 225 -60.5t165.5 -163.5t61.5 -224q0 -154 -119 -246q143 -35 231.5 -145.5t88.5 -255.5q0 -134 -61.5 -242.5t-169 -172t-240.5 -63.5q-150 0 -258 76q-66 45 -99.5 89t-54.5 118h-4v-254h-211zM348 397 h172q16 -100 83 -165.5t167 -65.5q106 0 178 76.5t72 185.5q0 127 -89 190.5t-224 63.5h-148v188q119 4 189.5 63.5t70.5 174.5q0 100 -67.5 171t-167.5 71q-119 0 -177.5 -80t-58.5 -203v-670z" />
<glyph unicode="&#xe0;" horiz-adv-x="1419" d="M78 563q0 170 79 307.5t216 216t307 78.5q119 0 221.5 -48t163.5 -142h4v160h213v-1135h-213v176h-4q-57 -100 -160.5 -152.5t-224.5 -52.5q-168 0 -306 77t-217 212t-79 303zM291 565q0 -104 51 -196.5t140 -147.5t196 -55q109 0 200 54t143 145.5t52 199.5 q0 113 -50 206t-140 146.5t-203 53.5q-111 0 -200 -55.5t-139 -147.5t-50 -203zM397 1505l90 164l457 -262l-86 -154z" />
<glyph unicode="&#xe1;" horiz-adv-x="1419" d="M78 563q0 170 79 307.5t216 216t307 78.5q119 0 221.5 -48t163.5 -142h4v160h213v-1135h-213v176h-4q-57 -100 -160.5 -152.5t-224.5 -52.5q-168 0 -306 77t-217 212t-79 303zM291 565q0 -104 51 -196.5t140 -147.5t196 -55q109 0 200 54t143 145.5t52 199.5 q0 113 -50 206t-140 146.5t-203 53.5q-111 0 -200 -55.5t-139 -147.5t-50 -203zM477 1405l457 262l90 -166l-461 -250z" />
<glyph unicode="&#xe2;" horiz-adv-x="1419" d="M78 563q0 170 79 307.5t216 216t307 78.5q119 0 221.5 -48t163.5 -142h4v160h213v-1135h-213v176h-4q-57 -100 -160.5 -152.5t-224.5 -52.5q-168 0 -306 77t-217 212t-79 303zM291 565q0 -104 51 -196.5t140 -147.5t196 -55q109 0 200 54t143 145.5t52 199.5 q0 113 -50 206t-140 146.5t-203 53.5q-111 0 -200 -55.5t-139 -147.5t-50 -203zM322 1294l284 277h205l287 -277h-244l-141 142l-148 -142h-243z" />
<glyph unicode="&#xe3;" horiz-adv-x="1419" d="M78 563q0 170 79 307.5t216 216t307 78.5q119 0 221.5 -48t163.5 -142h4v160h213v-1135h-213v176h-4q-57 -100 -160.5 -152.5t-224.5 -52.5q-168 0 -306 77t-217 212t-79 303zM291 565q0 -104 51 -196.5t140 -147.5t196 -55q109 0 200 54t143 145.5t52 199.5 q0 113 -50 206t-140 146.5t-203 53.5q-111 0 -200 -55.5t-139 -147.5t-50 -203zM334 1444q123 80 211 80q39 0 145 -29q115 -27 144 -27q33 0 63.5 11.5t59 26t40.5 20.5l88 -129q-117 -94 -223 -94q-33 0 -147 26q-98 27 -142 27q-57 0 -143 -45z" />
<glyph unicode="&#xe4;" horiz-adv-x="1419" d="M78 563q0 170 79 307.5t216 216t307 78.5q119 0 221.5 -48t163.5 -142h4v160h213v-1135h-213v176h-4q-57 -100 -160.5 -152.5t-224.5 -52.5q-168 0 -306 77t-217 212t-79 303zM291 565q0 -104 51 -196.5t140 -147.5t196 -55q109 0 200 54t143 145.5t52 199.5 q0 113 -50 206t-140 146.5t-203 53.5q-111 0 -200 -55.5t-139 -147.5t-50 -203zM444 1303v249h213v-249h-213zM762 1303v249h213v-249h-213z" />
<glyph unicode="&#xe5;" horiz-adv-x="1419" d="M78 563q0 170 79 307.5t216 216t307 78.5q119 0 221.5 -48t163.5 -142h4v160h213v-1135h-213v176h-4q-57 -100 -160.5 -152.5t-224.5 -52.5q-168 0 -306 77t-217 212t-79 303zM291 565q0 -104 51 -196.5t140 -147.5t196 -55q109 0 200 54t143 145.5t52 199.5 q0 113 -50 206t-140 146.5t-203 53.5q-111 0 -200 -55.5t-139 -147.5t-50 -203zM483 1475q0 96 66.5 161.5t161.5 65.5q92 0 158.5 -67.5t66.5 -159.5t-67.5 -159t-159.5 -67t-159 66.5t-67 159.5zM600 1477q0 -45 32 -76t77 -31t76.5 31t31.5 76t-31.5 76.5t-78.5 31.5 q-45 0 -76 -31.5t-31 -76.5z" />
<glyph unicode="&#xe6;" horiz-adv-x="2316" d="M78 578q0 164 80 299t217 211.5t303 76.5q244 0 401 -164h4v134h195v-134h4q61 82 165.5 123t219.5 41q158 0 289 -82t206.5 -218t75.5 -292q0 2 -6 -96h-946q25 -133 130.5 -222t240.5 -89q102 0 191 52t137 142h219q-61 -174 -211 -281.5t-332 -107.5q-227 0 -379 162 h-4v-133h-195v133q-92 -84 -184 -123t-213 -39q-170 0 -309 80t-219 218.5t-80 308.5zM291 575q0 -113 48 -206t136 -148t201 -55t204 54t142 147.5t51 203.5q0 113 -51 204t-142.5 143.5t-203.5 52.5q-111 0 -199 -52.5t-137 -142.5t-49 -201zM1286 625h739 q-10 153 -111.5 249.5t-254.5 96.5q-154 0 -256.5 -96.5t-116.5 -249.5z" />
<glyph unicode="&#xe7;" horiz-adv-x="1284" d="M78 569q0 164 75.5 300.5t210 216t298.5 79.5q123 0 239.5 -52t201.5 -145.5t116 -209.5h-236q-102 213 -319 213q-113 0 -198 -53.5t-130 -144.5t-45 -204q0 -109 45 -201t129 -147t194 -55q109 0 193 55t129 154h238q-62 -182 -209.5 -291t-337.5 -111l-35 -112 q18 2 41 2q72 0 120 -50.5t48 -121.5q0 -86 -57.5 -140.5t-143.5 -54.5q-76 0 -129 47t-61 121h108q18 -63 84 -63q37 0 61.5 23.5t24.5 60.5t-24.5 58t-61.5 21q-41 0 -69 -28l-70 65l59 179q-143 20 -254.5 104t-173 212t-61.5 273z" />
<glyph unicode="&#xe8;" horiz-adv-x="1314" d="M80 569q0 162 76.5 299.5t210 217t295.5 79.5q158 0 290.5 -78.5t209.5 -213t77 -291.5q0 -54 -6 -107h-940q33 -135 134 -222t239 -87q100 0 189 51t134 139h213q-66 -174 -213 -279.5t-332 -105.5q-158 0 -291 83t-209.5 220.5t-76.5 294.5zM293 639h733 q-6 90 -58.5 167t-134 121t-174.5 44q-92 0 -174 -44t-134 -121t-58 -167zM346 1505l90 164l457 -262l-86 -154z" />
<glyph unicode="&#xe9;" horiz-adv-x="1314" d="M80 569q0 162 76.5 299.5t210 217t295.5 79.5q158 0 290.5 -78.5t209.5 -213t77 -291.5q0 -54 -6 -107h-940q33 -135 134 -222t239 -87q100 0 189 51t134 139h213q-66 -174 -213 -279.5t-332 -105.5q-158 0 -291 83t-209.5 220.5t-76.5 294.5zM293 639h733 q-6 90 -58.5 167t-134 121t-174.5 44q-92 0 -174 -44t-134 -121t-58 -167zM426 1405l457 262l90 -166l-461 -250z" />
<glyph unicode="&#xea;" horiz-adv-x="1314" d="M80 569q0 162 76.5 299.5t210 217t295.5 79.5q158 0 290.5 -78.5t209.5 -213t77 -291.5q0 -54 -6 -107h-940q33 -135 134 -222t239 -87q100 0 189 51t134 139h213q-66 -174 -213 -279.5t-332 -105.5q-158 0 -291 83t-209.5 220.5t-76.5 294.5zM270 1294l285 277h205 l287 -277h-244l-141 142l-148 -142h-244zM293 639h733q-6 90 -58.5 167t-134 121t-174.5 44q-92 0 -174 -44t-134 -121t-58 -167z" />
<glyph unicode="&#xeb;" horiz-adv-x="1314" d="M80 569q0 162 76.5 299.5t210 217t295.5 79.5q158 0 290.5 -78.5t209.5 -213t77 -291.5q0 -54 -6 -107h-940q33 -135 134 -222t239 -87q100 0 189 51t134 139h213q-66 -174 -213 -279.5t-332 -105.5q-158 0 -291 83t-209.5 220.5t-76.5 294.5zM293 639h733 q-6 90 -58.5 167t-134 121t-174.5 44q-92 0 -174 -44t-134 -121t-58 -167zM393 1303v249h213v-249h-213zM711 1303v249h213v-249h-213z" />
<glyph unicode="&#xec;" horiz-adv-x="487" d="M-150 1505l91 164l456 -262l-86 -154zM137 0v1135h213v-1135h-213z" />
<glyph unicode="&#xed;" horiz-adv-x="487" d="M94 1405l457 262l90 -166l-461 -250zM137 0v1135h213v-1135h-213z" />
<glyph unicode="&#xee;" horiz-adv-x="487" d="M-143 1294l284 277h205l287 -277h-244l-141 142l-148 -142h-243zM137 0v1135h213v-1135h-213z" />
<glyph unicode="&#xef;" horiz-adv-x="487" d="M-20 1303v249h213v-249h-213zM137 0v1135h213v-1135h-213zM297 1303v249h213v-249h-213z" />
<glyph unicode="&#xf0;" horiz-adv-x="1382" d="M78 573q0 160 83 296.5t221 216t296 79.5q113 0 207 -57l4 4q-80 94 -227 178l-343 -114l-135 104l299 100q-84 35 -223 84l246 80q100 -25 219 -84l254 84l131 -106l-221 -74q190 -133 302 -334t112 -426q0 -176 -78 -320.5t-218.5 -228.5t-316.5 -84 q-190 0 -339.5 98.5t-223.5 272.5q-49 115 -49 231zM291 569q0 -109 54 -202t146.5 -147t200.5 -54q111 0 202 55t143.5 149.5t52.5 204.5q0 113 -52.5 203t-144.5 141.5t-205 51.5q-106 0 -198.5 -55.5t-145.5 -147.5t-53 -199z" />
<glyph unicode="&#xf1;" horiz-adv-x="1277" d="M135 0v1135h199v-121h4q115 152 332 151q127 0 232.5 -51t168.5 -151q72 -111 72 -291v-672h-213v616q0 354 -283 355q-150 0 -224.5 -99.5t-74.5 -253.5v-618h-213zM264 1444q123 80 211 80q39 0 146 -29q115 -27 143 -27q33 0 63.5 11.5t59 26t41.5 20.5l88 -129 q-117 -94 -223 -94q-33 0 -148 26q-98 27 -141 27q-57 0 -144 -45z" />
<glyph unicode="&#xf2;" horiz-adv-x="1382" d="M78 575q0 164 84 299.5t225 213t303 77.5q164 0 305.5 -78.5t224.5 -215t83 -300.5q0 -159 -82 -297.5t-222.5 -220.5t-308.5 -82q-164 0 -305 81t-224 220.5t-83 302.5zM291 569q0 -109 53 -202t145.5 -147t200.5 -54q109 0 201 55t145.5 148.5t53.5 201.5 q0 109 -53.5 201t-145.5 145.5t-201 53.5t-201 -54.5t-145 -146.5t-53 -201zM379 1505l90 164l457 -262l-86 -154z" />
<glyph unicode="&#xf3;" horiz-adv-x="1382" d="M78 575q0 164 84 299.5t225 213t303 77.5q164 0 305.5 -78.5t224.5 -215t83 -300.5q0 -159 -82 -297.5t-222.5 -220.5t-308.5 -82q-164 0 -305 81t-224 220.5t-83 302.5zM291 569q0 -109 53 -202t145.5 -147t200.5 -54q109 0 201 55t145.5 148.5t53.5 201.5 q0 109 -53.5 201t-145.5 145.5t-201 53.5t-201 -54.5t-145 -146.5t-53 -201zM459 1405l456 262l91 -166l-461 -250z" />
<glyph unicode="&#xf4;" horiz-adv-x="1382" d="M78 575q0 164 84 299.5t225 213t303 77.5q164 0 305.5 -78.5t224.5 -215t83 -300.5q0 -159 -82 -297.5t-222.5 -220.5t-308.5 -82q-164 0 -305 81t-224 220.5t-83 302.5zM291 569q0 -109 53 -202t145.5 -147t200.5 -54q109 0 201 55t145.5 148.5t53.5 201.5 q0 109 -53.5 201t-145.5 145.5t-201 53.5t-201 -54.5t-145 -146.5t-53 -201zM303 1294l285 277h205l286 -277h-243l-142 142l-147 -142h-244z" />
<glyph unicode="&#xf5;" horiz-adv-x="1382" d="M78 575q0 164 84 299.5t225 213t303 77.5q164 0 305.5 -78.5t224.5 -215t83 -300.5q0 -159 -82 -297.5t-222.5 -220.5t-308.5 -82q-164 0 -305 81t-224 220.5t-83 302.5zM291 569q0 -109 53 -202t145.5 -147t200.5 -54q109 0 201 55t145.5 148.5t53.5 201.5 q0 109 -53.5 201t-145.5 145.5t-201 53.5t-201 -54.5t-145 -146.5t-53 -201zM315 1444q123 80 211 80q39 0 146 -29q115 -27 143 -27q33 0 63.5 11.5t59.5 26l41 20.5l88 -129q-117 -94 -223 -94q-33 0 -148 26q-98 27 -141 27q-57 0 -143 -45z" />
<glyph unicode="&#xf6;" horiz-adv-x="1382" d="M78 575q0 164 84 299.5t225 213t303 77.5q164 0 305.5 -78.5t224.5 -215t83 -300.5q0 -159 -82 -297.5t-222.5 -220.5t-308.5 -82q-164 0 -305 81t-224 220.5t-83 302.5zM291 569q0 -109 53 -202t145.5 -147t200.5 -54q109 0 201 55t145.5 148.5t53.5 201.5 q0 109 -53.5 201t-145.5 145.5t-201 53.5t-201 -54.5t-145 -146.5t-53 -201zM426 1303v249h213v-249h-213zM743 1303v249h213v-249h-213z" />
<glyph unicode="&#xf7;" horiz-adv-x="1228" d="M98 412v213h1032v-213h-1032zM508 0v221h213v-221h-213zM508 815v221h213v-221h-213z" />
<glyph unicode="&#xf8;" horiz-adv-x="1382" d="M78 575q0 164 84 299.5t225 213t303 77.5q137 0 244 -49l104 160l164 -109l-102 -155q94 -82 148.5 -198t54.5 -241q0 -163 -84 -301.5t-224.5 -219.5t-304.5 -81q-137 0 -244 49l-106 -161l-162 108l105 158q-96 88 -150.5 206t-54.5 244zM291 569q0 -152 104 -272 l428 651q-72 23 -133 23q-109 0 -201 -54.5t-145 -146.5t-53 -201zM557 188q72 -23 133 -22q109 0 201 54t145.5 147.5t53.5 201.5q-1 156 -103 271z" />
<glyph unicode="&#xf9;" horiz-adv-x="1277" d="M135 520v615h213v-615q0 -166 63.5 -260t219.5 -94q154 0 225.5 100.5t71.5 259.5v609h213v-1135h-195v123h-4q-45 -78 -138 -115t-196 -37q-193 0 -323 113q-150 129 -150 436zM276 1505l91 164l456 -262l-86 -154z" />
<glyph unicode="&#xfa;" horiz-adv-x="1277" d="M135 520v615h213v-615q0 -166 63.5 -260t219.5 -94q154 0 225.5 100.5t71.5 259.5v609h213v-1135h-195v123h-4q-45 -78 -138 -115t-196 -37q-193 0 -323 113q-150 129 -150 436zM459 1405l456 262l91 -166l-461 -250z" />
<glyph unicode="&#xfb;" horiz-adv-x="1277" d="M135 520v615h213v-615q0 -166 63.5 -260t219.5 -94q154 0 225.5 100.5t71.5 259.5v609h213v-1135h-195v123h-4q-45 -78 -138 -115t-196 -37q-193 0 -323 113q-150 129 -150 436zM252 1294l285 277h204l287 -277h-244l-141 142l-147 -142h-244z" />
<glyph unicode="&#xfc;" horiz-adv-x="1277" d="M135 520v615h213v-615q0 -166 63.5 -260t219.5 -94q154 0 225.5 100.5t71.5 259.5v609h213v-1135h-195v123h-4q-45 -78 -138 -115t-196 -37q-193 0 -323 113q-150 129 -150 436zM375 1303v249h213v-249h-213zM692 1303v249h213v-249h-213z" />
<glyph unicode="&#xfd;" horiz-adv-x="1175" d="M20 1135h230l334 -881l342 881h229l-627 -1514h-221l166 402zM408 1405l456 262l90 -166l-460 -250z" />
<glyph unicode="&#xfe;" horiz-adv-x="1404" d="M137 -379v1895h213v-539h4q59 92 163 140t222 48q172 0 305.5 -80.5t208 -221t74.5 -310.5q0 -160 -75.5 -293t-207 -211t-290.5 -78q-123 0 -233.5 48.5t-166.5 144.5h-4v-543h-213zM346 569q0 -109 49 -202t137.5 -147t198.5 -54q109 0 197 54t137 145.5t49 199.5 q0 107 -52 200t-141.5 149.5t-195.5 56.5t-193.5 -55.5t-136.5 -147.5t-49 -199z" />
<glyph unicode="&#xff;" horiz-adv-x="1175" d="M20 1135h230l334 -881l342 881h229l-627 -1514h-221l166 402zM324 1303v249h213v-249h-213zM641 1303v249h213v-249h-213z" />
<glyph unicode="&#x152;" horiz-adv-x="2240" d="M78 750q0 160 63 315q96 227 290 353t441 126q162 0 312.5 -63.5t232.5 -186.5h4v222h725v-203h-504v-447h504v-202h-504v-461h504v-203h-725v217h-4q-88 -125 -234.5 -185.5t-314.5 -60.5q-221 0 -401 101.5t-284.5 278.5t-104.5 399zM299 748q0 -160 72.5 -291 t201.5 -207t289 -76t289 76t201.5 207t72.5 291q0 159 -71.5 295.5t-200.5 217t-289 80.5q-162 0 -291 -80.5t-201.5 -217t-72.5 -295.5z" />
<glyph unicode="&#x153;" horiz-adv-x="2342" d="M78 571q0 162 82 298.5t221 216t301 79.5q160 0 296 -68.5t220 -197.5q76 131 201 198.5t278 67.5q166 0 301.5 -77.5t212 -215t76.5 -303.5q0 -31 -4 -92l-960 2q16 -86 72.5 -157.5t137 -113.5t166.5 -42q109 0 199 50t141 144h215q-72 -180 -218 -284.5t-337 -104.5 q-150 0 -275.5 74t-203.5 203q-78 -129 -214 -203t-288 -74q-182 0 -329.5 91.5t-229.5 252.5q-61 123 -61 256zM291 571q0 -106 52 -200.5t143.5 -149.5t197.5 -55q109 0 202 53t147 144.5t54 199.5q0 115 -52 208t-144 146.5t-207 53.5q-106 0 -196.5 -54.5t-143.5 -146.5 t-53 -199zM1303 625h751q-16 159 -115.5 251.5t-259.5 92.5q-156 0 -256 -93.5t-120 -250.5z" />
<glyph unicode="&#x178;" horiz-adv-x="1214" d="M27 1516h247l334 -711l332 711h246l-467 -969v-547h-221v547zM342 1642v250h213v-250h-213zM659 1642v250h213v-250h-213z" />
<glyph unicode="&#x2c6;" d="M178 1292l285 277h205l286 -277h-243l-142 142l-147 -142h-244z" />
<glyph unicode="&#x2dc;" d="M188 1444q123 80 211 80q39 0 146 -29q115 -27 143 -27q33 0 63.5 11.5t59.5 26l41 20.5l88 -129q-117 -94 -223 -94q-33 0 -148 26q-98 27 -141 27q-57 0 -143 -45z" />
<glyph unicode="&#x2000;" horiz-adv-x="1005" />
<glyph unicode="&#x2001;" horiz-adv-x="2011" />
<glyph unicode="&#x2002;" horiz-adv-x="1005" />
<glyph unicode="&#x2003;" horiz-adv-x="2011" />
<glyph unicode="&#x2004;" horiz-adv-x="670" />
<glyph unicode="&#x2005;" horiz-adv-x="502" />
<glyph unicode="&#x2006;" horiz-adv-x="335" />
<glyph unicode="&#x2007;" horiz-adv-x="335" />
<glyph unicode="&#x2008;" horiz-adv-x="251" />
<glyph unicode="&#x2009;" horiz-adv-x="402" />
<glyph unicode="&#x200a;" horiz-adv-x="111" />
<glyph unicode="&#x2010;" horiz-adv-x="573" d="M0 485v213h573v-213h-573z" />
<glyph unicode="&#x2011;" horiz-adv-x="573" d="M0 485v213h573v-213h-573z" />
<glyph unicode="&#x2012;" horiz-adv-x="573" d="M0 485v213h573v-213h-573z" />
<glyph unicode="&#x2013;" horiz-adv-x="1024" d="M72 485v213h880v-213h-880z" />
<glyph unicode="&#x2014;" horiz-adv-x="2048" d="M72 485v213h1904v-213h-1904z" />
<glyph unicode="&#x2018;" horiz-adv-x="567" d="M176 1004v227q0 240 213 285v-130q-47 -14 -61.5 -44.5t-14.5 -88.5h76v-249h-213z" />
<glyph unicode="&#x2019;" horiz-adv-x="567" d="M178 1004v129q47 14 61.5 44.5t14.5 88.5h-76v250h213v-228q0 -239 -213 -284z" />
<glyph unicode="&#x201a;" horiz-adv-x="567" d="M178 0v250h213v-227q0 -240 -213 -285v129q47 14 61.5 45t14.5 88h-76z" />
<glyph unicode="&#x201c;" horiz-adv-x="870" d="M170 1004v227q0 240 213 285v-130q-47 -14 -61.5 -44.5t-14.5 -88.5h76v-249h-213zM489 1004v227q0 240 213 285v-130q-47 -14 -61 -44.5t-14 -88.5h75v-249h-213z" />
<glyph unicode="&#x201d;" horiz-adv-x="870" d="M168 1004v129q47 14 61.5 44.5t14.5 88.5h-76v250h213v-228q0 -239 -213 -284zM487 1004v129q47 14 61.5 44.5t14.5 88.5h-76v250h213v-228q0 -239 -213 -284z" />
<glyph unicode="&#x201e;" horiz-adv-x="870" d="M168 0v250h213v-227q0 -240 -213 -285v129q47 14 61.5 45t14.5 88h-76zM487 0v250h213v-227q0 -240 -213 -285v129q47 14 61.5 45t14.5 88h-76z" />
<glyph unicode="&#x2022;" horiz-adv-x="1241" d="M307 772q0 86 42 159t115 116t159 43t156.5 -44.5t111.5 -117t41 -156.5t-42 -157.5t-112.5 -116.5t-156.5 -43t-158 43t-114 116.5t-42 157.5z" />
<glyph unicode="&#x2026;" horiz-adv-x="2048" d="M236 0v250h213v-250h-213zM918 0v250h212v-250h-212zM1599 0v250h213v-250h-213z" />
<glyph unicode="&#x202f;" horiz-adv-x="402" />
<glyph unicode="&#x2039;" horiz-adv-x="419" d="M70 483v211l280 279v-232l-153 -151l153 -152v-229z" />
<glyph unicode="&#x203a;" horiz-adv-x="419" d="M70 209v229l153 152l-153 151v232l280 -279v-211z" />
<glyph unicode="&#x205f;" horiz-adv-x="502" />
<glyph unicode="&#x20ac;" d="M2 547l29 155h145l2 134h-176l29 155h157q68 557 482 557q182 0 298.5 -114.5t139.5 -296.5h-199q-18 96 -80.5 156.5t-156.5 60.5q-133 0 -189.5 -102.5t-74.5 -260.5h491l-29 -155h-475v-76v-58h453l-29 -155h-411q39 -381 268 -381q109 0 163 60.5t72 176.5h203 q-16 -208 -131 -320t-321 -112q-414 0 -476 576h-184z" />
<glyph unicode="&#x2122;" horiz-adv-x="1992" d="M0 1354v162h692v-162h-246v-682h-200v682h-246zM860 672v844h293l203 -533l200 533h293v-844h-200v598h-4l-213 -598h-154l-213 598h-4v-598h-201z" />
<glyph unicode="&#xe000;" d="M0 0v1137h1137v-1137h-1137z" />
<glyph unicode="&#xfb01;" horiz-adv-x="995" d="M43 940v195h100v55q0 178 136 264q66 41 121 51.5t155 10.5v-195q-199 0 -199 -131v-55h502v-1135h-213v940h-289v-940h-213v940h-100zM645 1266v250h213v-250h-213z" />
<glyph unicode="&#xfb02;" horiz-adv-x="995" d="M43 940v195h100v55q0 178 136 264q66 41 121 51.5t155 10.5v-195q-199 0 -199 -131v-55h289v381h213v-1516h-213v940h-289v-940h-213v940h-100z" />
<glyph unicode="&#xfb03;" horiz-adv-x="1497" d="M43 940v195h100v55q0 152 99.5 239t259.5 87h53v-195h-6q-86 0 -139.5 -30.5t-53.5 -100.5v-55h289v55q0 152 99.5 239t259.5 87h53v-195h-6q-86 0 -139.5 -30.5t-53.5 -100.5v-55h502v-1135h-213v940h-289v-940h-213v940h-289v-940h-213v940h-100zM1147 1266v250h213 v-250h-213z" />
<glyph unicode="&#xfb04;" horiz-adv-x="1497" d="M43 940v195h100v55q0 152 99.5 239t259.5 87h53v-195h-6q-86 0 -139.5 -30.5t-53.5 -100.5v-55h289v55q0 152 99.5 239t259.5 87h53v-195h-6q-86 0 -139.5 -30.5t-53.5 -100.5v-55h289v381h213v-1516h-213v940h-289v-940h-213v940h-289v-940h-213v940h-100z" />
</font>
</defs>
</svg>
